<mxfile host="app.diagrams.net" modified="2023-04-25T06:55:29.174Z" agent="Mozilla/5.0 (Windows NT 10.0; Win64; x64) AppleWebKit/537.36 (KHTML, like Gecko) Chrome/112.0.0.0 Safari/537.36" etag="stHvObpRE-YnciT6AfsH" version="21.2.1" type="github">
  <diagram name="Page-1" id="c4acf3e9-155e-7222-9cf6-157b1a14988f">
    <mxGraphModel dx="1964" dy="676" grid="1" gridSize="10" guides="1" tooltips="1" connect="1" arrows="1" fold="1" page="1" pageScale="1" pageWidth="850" pageHeight="1100" background="none" math="0" shadow="0">
      <root>
        <mxCell id="0" />
        <mxCell id="1" parent="0" />
        <mxCell id="5d2195bd80daf111-18" value="&lt;p style=&quot;margin:0px;margin-top:4px;text-align:center;&quot;&gt;&lt;i&gt;&amp;lt;&amp;lt;Interface&amp;gt;&amp;gt;&lt;/i&gt;&lt;br&gt;&lt;b&gt;Recognizer&lt;/b&gt;&lt;/p&gt;&lt;hr size=&quot;1&quot;&gt;&lt;p style=&quot;margin:0px;margin-left:4px;&quot;&gt;+ filled()&amp;nbsp; //参数设置&lt;br&gt;+ execute() //调用识别方法&lt;/p&gt;" style="verticalAlign=top;align=left;overflow=fill;fontSize=12;fontFamily=Helvetica;html=1;rounded=0;shadow=0;comic=0;labelBackgroundColor=none;strokeWidth=1" parent="1" vertex="1">
          <mxGeometry x="-285" y="60" width="190" height="83" as="geometry" />
        </mxCell>
        <mxCell id="3HKocF3OoKaBc0Ek1x32-14" style="edgeStyle=none;rounded=0;orthogonalLoop=1;jettySize=auto;html=1;exitX=0.5;exitY=0;exitDx=0;exitDy=0;entryX=0.5;entryY=1;entryDx=0;entryDy=0;dashed=1;endArrow=block;endFill=0;" edge="1" parent="1" source="3HKocF3OoKaBc0Ek1x32-5" target="5d2195bd80daf111-18">
          <mxGeometry relative="1" as="geometry" />
        </mxCell>
        <mxCell id="3HKocF3OoKaBc0Ek1x32-5" value="StaticRecognizerTwo" style="swimlane;fontStyle=0;childLayout=stackLayout;horizontal=1;startSize=26;fillColor=none;horizontalStack=0;resizeParent=1;resizeParentMax=0;resizeLast=0;collapsible=1;marginBottom=0;whiteSpace=wrap;html=1;" vertex="1" collapsed="1" parent="1">
          <mxGeometry x="-260" y="200" width="120" height="30" as="geometry">
            <mxRectangle x="170" y="220" width="140" height="52" as="alternateBounds" />
          </mxGeometry>
        </mxCell>
        <mxCell id="3HKocF3OoKaBc0Ek1x32-13" style="edgeStyle=none;rounded=0;orthogonalLoop=1;jettySize=auto;html=1;exitX=0.5;exitY=0;exitDx=0;exitDy=0;entryX=0.5;entryY=1;entryDx=0;entryDy=0;dashed=1;endArrow=block;endFill=0;" edge="1" parent="1" source="3HKocF3OoKaBc0Ek1x32-9" target="5d2195bd80daf111-18">
          <mxGeometry relative="1" as="geometry" />
        </mxCell>
        <mxCell id="3HKocF3OoKaBc0Ek1x32-9" value="StaticRecognizerOne" style="swimlane;fontStyle=0;childLayout=stackLayout;horizontal=1;startSize=26;fillColor=none;horizontalStack=0;resizeParent=1;resizeParentMax=0;resizeLast=0;collapsible=1;marginBottom=0;whiteSpace=wrap;html=1;" vertex="1" collapsed="1" parent="1">
          <mxGeometry x="-410" y="200" width="120" height="30" as="geometry">
            <mxRectangle x="20" y="220" width="140" height="52" as="alternateBounds" />
          </mxGeometry>
        </mxCell>
        <mxCell id="3HKocF3OoKaBc0Ek1x32-15" style="edgeStyle=none;rounded=0;orthogonalLoop=1;jettySize=auto;html=1;exitX=0.5;exitY=0;exitDx=0;exitDy=0;entryX=0.5;entryY=1;entryDx=0;entryDy=0;dashed=1;endArrow=block;endFill=0;" edge="1" parent="1" source="3HKocF3OoKaBc0Ek1x32-10" target="5d2195bd80daf111-18">
          <mxGeometry relative="1" as="geometry" />
        </mxCell>
        <mxCell id="3HKocF3OoKaBc0Ek1x32-10" value="StaticRecognizerThree" style="swimlane;fontStyle=0;childLayout=stackLayout;horizontal=1;startSize=26;fillColor=none;horizontalStack=0;resizeParent=1;resizeParentMax=0;resizeLast=0;collapsible=1;marginBottom=0;whiteSpace=wrap;html=1;" vertex="1" collapsed="1" parent="1">
          <mxGeometry x="-100" y="200" width="130" height="30" as="geometry">
            <mxRectangle x="330" y="220" width="140" height="52" as="alternateBounds" />
          </mxGeometry>
        </mxCell>
        <mxCell id="3HKocF3OoKaBc0Ek1x32-22" style="edgeStyle=none;rounded=0;orthogonalLoop=1;jettySize=auto;html=1;exitX=0.5;exitY=0;exitDx=0;exitDy=0;dashed=1;endArrow=block;endFill=0;" edge="1" parent="1" source="3HKocF3OoKaBc0Ek1x32-19">
          <mxGeometry relative="1" as="geometry">
            <mxPoint x="-190" y="140" as="targetPoint" />
          </mxGeometry>
        </mxCell>
        <mxCell id="3HKocF3OoKaBc0Ek1x32-19" value="DynamicRecognizerOne" style="swimlane;fontStyle=0;childLayout=stackLayout;horizontal=1;startSize=26;fillColor=none;horizontalStack=0;resizeParent=1;resizeParentMax=0;resizeLast=0;collapsible=1;marginBottom=0;whiteSpace=wrap;html=1;" vertex="1" collapsed="1" parent="1">
          <mxGeometry x="-410" y="250" width="120" height="30" as="geometry">
            <mxRectangle x="20" y="220" width="140" height="52" as="alternateBounds" />
          </mxGeometry>
        </mxCell>
        <mxCell id="3HKocF3OoKaBc0Ek1x32-23" style="edgeStyle=none;rounded=0;orthogonalLoop=1;jettySize=auto;html=1;dashed=1;endArrow=block;endFill=0;" edge="1" parent="1" source="3HKocF3OoKaBc0Ek1x32-20">
          <mxGeometry relative="1" as="geometry">
            <mxPoint x="-190" y="140" as="targetPoint" />
          </mxGeometry>
        </mxCell>
        <mxCell id="3HKocF3OoKaBc0Ek1x32-20" value="DynamicRecognizerTwo" style="swimlane;fontStyle=0;childLayout=stackLayout;horizontal=1;startSize=26;fillColor=none;horizontalStack=0;resizeParent=1;resizeParentMax=0;resizeLast=0;collapsible=1;marginBottom=0;whiteSpace=wrap;html=1;" vertex="1" collapsed="1" parent="1">
          <mxGeometry x="-260" y="250" width="120" height="30" as="geometry">
            <mxRectangle x="170" y="220" width="140" height="52" as="alternateBounds" />
          </mxGeometry>
        </mxCell>
        <mxCell id="3HKocF3OoKaBc0Ek1x32-24" style="edgeStyle=none;rounded=0;orthogonalLoop=1;jettySize=auto;html=1;dashed=1;endArrow=block;endFill=0;" edge="1" parent="1" source="3HKocF3OoKaBc0Ek1x32-21">
          <mxGeometry relative="1" as="geometry">
            <mxPoint x="-190" y="140" as="targetPoint" />
          </mxGeometry>
        </mxCell>
        <mxCell id="3HKocF3OoKaBc0Ek1x32-21" value="DynamicRecognizerThree" style="swimlane;fontStyle=0;childLayout=stackLayout;horizontal=1;startSize=26;fillColor=none;horizontalStack=0;resizeParent=1;resizeParentMax=0;resizeLast=0;collapsible=1;marginBottom=0;whiteSpace=wrap;html=1;" vertex="1" collapsed="1" parent="1">
          <mxGeometry x="-100" y="250" width="130" height="30" as="geometry">
            <mxRectangle x="330" y="220" width="140" height="52" as="alternateBounds" />
          </mxGeometry>
        </mxCell>
        <mxCell id="3HKocF3OoKaBc0Ek1x32-31" style="edgeStyle=none;rounded=0;orthogonalLoop=1;jettySize=auto;html=1;entryX=0.5;entryY=1;entryDx=0;entryDy=0;dashed=1;endArrow=block;endFill=0;" edge="1" parent="1" source="3HKocF3OoKaBc0Ek1x32-25" target="3HKocF3OoKaBc0Ek1x32-30">
          <mxGeometry relative="1" as="geometry" />
        </mxCell>
        <mxCell id="3HKocF3OoKaBc0Ek1x32-25" value="&lt;i&gt;AbstractRecognizerFactory&lt;/i&gt;" style="swimlane;fontStyle=1;align=center;verticalAlign=top;childLayout=stackLayout;horizontal=1;startSize=26;horizontalStack=0;resizeParent=1;resizeParentMax=0;resizeLast=0;collapsible=1;marginBottom=0;whiteSpace=wrap;html=1;" vertex="1" parent="1">
          <mxGeometry x="263.5" y="200" width="205" height="110" as="geometry" />
        </mxCell>
        <mxCell id="3HKocF3OoKaBc0Ek1x32-27" value="" style="line;strokeWidth=1;fillColor=none;align=left;verticalAlign=middle;spacingTop=-1;spacingLeft=3;spacingRight=3;rotatable=0;labelPosition=right;points=[];portConstraint=eastwest;strokeColor=inherit;" vertex="1" parent="3HKocF3OoKaBc0Ek1x32-25">
          <mxGeometry y="26" width="205" height="8" as="geometry" />
        </mxCell>
        <mxCell id="3HKocF3OoKaBc0Ek1x32-28" value="+&amp;nbsp;createRecognizer()&lt;br&gt;+ createOne() : Recognizer&lt;br&gt;+ createTwo():Recognizer&lt;br&gt;+ createThree():Recognizer" style="text;strokeColor=none;fillColor=none;align=left;verticalAlign=top;spacingLeft=4;spacingRight=4;overflow=hidden;rotatable=0;points=[[0,0.5],[1,0.5]];portConstraint=eastwest;whiteSpace=wrap;html=1;" vertex="1" parent="3HKocF3OoKaBc0Ek1x32-25">
          <mxGeometry y="34" width="205" height="76" as="geometry" />
        </mxCell>
        <mxCell id="3HKocF3OoKaBc0Ek1x32-30" value="&lt;p style=&quot;margin:0px;margin-top:4px;text-align:center;&quot;&gt;&lt;i&gt;&amp;lt;&amp;lt;Interface&amp;gt;&amp;gt;&lt;/i&gt;&lt;br&gt;&lt;b&gt;Factory&lt;/b&gt;&lt;/p&gt;&lt;hr size=&quot;1&quot;&gt;&lt;p style=&quot;margin:0px;margin-left:4px;&quot;&gt;+ createRecognizer()&lt;/p&gt;" style="verticalAlign=top;align=left;overflow=fill;fontSize=12;fontFamily=Helvetica;html=1;rounded=0;shadow=0;comic=0;labelBackgroundColor=none;strokeWidth=1" vertex="1" parent="1">
          <mxGeometry x="272.5" y="60" width="190" height="83" as="geometry" />
        </mxCell>
        <mxCell id="3HKocF3OoKaBc0Ek1x32-40" style="edgeStyle=none;rounded=0;orthogonalLoop=1;jettySize=auto;html=1;exitX=0.5;exitY=0;exitDx=0;exitDy=0;entryX=0.485;entryY=1.033;entryDx=0;entryDy=0;entryPerimeter=0;endArrow=block;endFill=0;" edge="1" parent="1" source="3HKocF3OoKaBc0Ek1x32-32" target="3HKocF3OoKaBc0Ek1x32-28">
          <mxGeometry relative="1" as="geometry" />
        </mxCell>
        <mxCell id="3HKocF3OoKaBc0Ek1x32-32" value="Static&lt;span style=&quot;border-color: var(--border-color);&quot;&gt;RecognizerFactory&lt;/span&gt;" style="swimlane;fontStyle=1;align=center;verticalAlign=top;childLayout=stackLayout;horizontal=1;startSize=26;horizontalStack=0;resizeParent=1;resizeParentMax=0;resizeLast=0;collapsible=1;marginBottom=0;whiteSpace=wrap;html=1;" vertex="1" parent="1">
          <mxGeometry x="120" y="360" width="240" height="60" as="geometry" />
        </mxCell>
        <mxCell id="3HKocF3OoKaBc0Ek1x32-34" value="" style="line;strokeWidth=1;fillColor=none;align=left;verticalAlign=middle;spacingTop=-1;spacingLeft=3;spacingRight=3;rotatable=0;labelPosition=right;points=[];portConstraint=eastwest;strokeColor=inherit;" vertex="1" parent="3HKocF3OoKaBc0Ek1x32-32">
          <mxGeometry y="26" width="240" height="8" as="geometry" />
        </mxCell>
        <mxCell id="3HKocF3OoKaBc0Ek1x32-35" value="+ createRecognizer()" style="text;strokeColor=none;fillColor=none;align=left;verticalAlign=top;spacingLeft=4;spacingRight=4;overflow=hidden;rotatable=0;points=[[0,0.5],[1,0.5]];portConstraint=eastwest;whiteSpace=wrap;html=1;" vertex="1" parent="3HKocF3OoKaBc0Ek1x32-32">
          <mxGeometry y="34" width="240" height="26" as="geometry" />
        </mxCell>
        <mxCell id="3HKocF3OoKaBc0Ek1x32-42" style="edgeStyle=none;rounded=0;orthogonalLoop=1;jettySize=auto;html=1;endArrow=block;endFill=0;exitX=0.5;exitY=0;exitDx=0;exitDy=0;" edge="1" parent="1" source="3HKocF3OoKaBc0Ek1x32-36">
          <mxGeometry relative="1" as="geometry">
            <mxPoint x="360" y="310" as="targetPoint" />
          </mxGeometry>
        </mxCell>
        <mxCell id="3HKocF3OoKaBc0Ek1x32-36" value="&lt;span style=&quot;border-color: var(--border-color);&quot;&gt;DynamicRecognizerFactory&lt;/span&gt;" style="swimlane;fontStyle=1;align=center;verticalAlign=top;childLayout=stackLayout;horizontal=1;startSize=26;horizontalStack=0;resizeParent=1;resizeParentMax=0;resizeLast=0;collapsible=1;marginBottom=0;whiteSpace=wrap;html=1;" vertex="1" parent="1">
          <mxGeometry x="440" y="360" width="240" height="60" as="geometry" />
        </mxCell>
        <mxCell id="3HKocF3OoKaBc0Ek1x32-38" value="" style="line;strokeWidth=1;fillColor=none;align=left;verticalAlign=middle;spacingTop=-1;spacingLeft=3;spacingRight=3;rotatable=0;labelPosition=right;points=[];portConstraint=eastwest;strokeColor=inherit;" vertex="1" parent="3HKocF3OoKaBc0Ek1x32-36">
          <mxGeometry y="26" width="240" height="8" as="geometry" />
        </mxCell>
        <mxCell id="3HKocF3OoKaBc0Ek1x32-39" value="+ createRecognizer()" style="text;strokeColor=none;fillColor=none;align=left;verticalAlign=top;spacingLeft=4;spacingRight=4;overflow=hidden;rotatable=0;points=[[0,0.5],[1,0.5]];portConstraint=eastwest;whiteSpace=wrap;html=1;" vertex="1" parent="3HKocF3OoKaBc0Ek1x32-36">
          <mxGeometry y="34" width="240" height="26" as="geometry" />
        </mxCell>
        <mxCell id="3HKocF3OoKaBc0Ek1x32-43" value="AbstractRecognitionFormwork" style="swimlane;fontStyle=1;align=center;verticalAlign=top;childLayout=stackLayout;horizontal=1;startSize=26;horizontalStack=0;resizeParent=1;resizeParentMax=0;resizeLast=0;collapsible=1;marginBottom=0;whiteSpace=wrap;html=1;" vertex="1" parent="1">
          <mxGeometry x="-355" y="360" width="260" height="200" as="geometry" />
        </mxCell>
        <mxCell id="3HKocF3OoKaBc0Ek1x32-44" value="- isDynamic&lt;br&gt;- displayParam" style="text;strokeColor=none;fillColor=none;align=left;verticalAlign=top;spacingLeft=4;spacingRight=4;overflow=hidden;rotatable=0;points=[[0,0.5],[1,0.5]];portConstraint=eastwest;whiteSpace=wrap;html=1;" vertex="1" parent="3HKocF3OoKaBc0Ek1x32-43">
          <mxGeometry y="26" width="260" height="44" as="geometry" />
        </mxCell>
        <mxCell id="3HKocF3OoKaBc0Ek1x32-45" value="" style="line;strokeWidth=1;fillColor=none;align=left;verticalAlign=middle;spacingTop=-1;spacingLeft=3;spacingRight=3;rotatable=0;labelPosition=right;points=[];portConstraint=eastwest;strokeColor=inherit;" vertex="1" parent="3HKocF3OoKaBc0Ek1x32-43">
          <mxGeometry y="70" width="260" height="8" as="geometry" />
        </mxCell>
        <mxCell id="3HKocF3OoKaBc0Ek1x32-46" value="# &lt;i&gt;saveImage()&lt;/i&gt;&lt;br&gt;# &lt;i&gt;getDisplayParam() &lt;/i&gt;//成功模板&lt;br&gt;# &lt;i&gt;produceProduct()&lt;/i&gt; //陈列信息&lt;br&gt;# &lt;i&gt;productSale() &lt;/i&gt;//销售信息&lt;br&gt;# &lt;i&gt;generateLog()&lt;/i&gt; //生成日志&lt;br&gt;# &lt;i&gt;initAnlysis()&amp;nbsp;&lt;/i&gt;&lt;br&gt;+ parsingData()&lt;br&gt;# otherCommonMethed()" style="text;strokeColor=none;fillColor=none;align=left;verticalAlign=top;spacingLeft=4;spacingRight=4;overflow=hidden;rotatable=0;points=[[0,0.5],[1,0.5]];portConstraint=eastwest;whiteSpace=wrap;html=1;" vertex="1" parent="3HKocF3OoKaBc0Ek1x32-43">
          <mxGeometry y="78" width="260" height="122" as="geometry" />
        </mxCell>
        <mxCell id="3HKocF3OoKaBc0Ek1x32-53" style="edgeStyle=none;rounded=0;orthogonalLoop=1;jettySize=auto;html=1;entryX=0.34;entryY=1.012;entryDx=0;entryDy=0;entryPerimeter=0;endArrow=block;endFill=0;" edge="1" parent="1" source="3HKocF3OoKaBc0Ek1x32-47" target="3HKocF3OoKaBc0Ek1x32-46">
          <mxGeometry relative="1" as="geometry" />
        </mxCell>
        <mxCell id="3HKocF3OoKaBc0Ek1x32-47" value="RecognitionFormwordOne" style="swimlane;fontStyle=0;childLayout=stackLayout;horizontal=1;startSize=26;fillColor=none;horizontalStack=0;resizeParent=1;resizeParentMax=0;resizeLast=0;collapsible=1;marginBottom=0;whiteSpace=wrap;html=1;" vertex="1" collapsed="1" parent="1">
          <mxGeometry x="-535" y="620" width="180" height="30" as="geometry">
            <mxRectangle x="20" y="220" width="140" height="52" as="alternateBounds" />
          </mxGeometry>
        </mxCell>
        <mxCell id="3HKocF3OoKaBc0Ek1x32-51" style="edgeStyle=none;rounded=0;orthogonalLoop=1;jettySize=auto;html=1;exitX=0.5;exitY=0;exitDx=0;exitDy=0;endArrow=block;endFill=0;" edge="1" parent="1" source="3HKocF3OoKaBc0Ek1x32-48">
          <mxGeometry relative="1" as="geometry">
            <mxPoint x="-240" y="560" as="targetPoint" />
          </mxGeometry>
        </mxCell>
        <mxCell id="3HKocF3OoKaBc0Ek1x32-48" value="RecognitionFormwordTwo" style="swimlane;fontStyle=0;childLayout=stackLayout;horizontal=1;startSize=26;fillColor=none;horizontalStack=0;resizeParent=1;resizeParentMax=0;resizeLast=0;collapsible=1;marginBottom=0;whiteSpace=wrap;html=1;" vertex="1" collapsed="1" parent="1">
          <mxGeometry x="-330" y="620" width="180" height="30" as="geometry">
            <mxRectangle x="20" y="220" width="140" height="52" as="alternateBounds" />
          </mxGeometry>
        </mxCell>
        <mxCell id="3HKocF3OoKaBc0Ek1x32-52" style="edgeStyle=none;rounded=0;orthogonalLoop=1;jettySize=auto;html=1;exitX=0.5;exitY=0;exitDx=0;exitDy=0;entryX=0.571;entryY=1.033;entryDx=0;entryDy=0;entryPerimeter=0;endArrow=block;endFill=0;" edge="1" parent="1" source="3HKocF3OoKaBc0Ek1x32-49" target="3HKocF3OoKaBc0Ek1x32-46">
          <mxGeometry relative="1" as="geometry" />
        </mxCell>
        <mxCell id="3HKocF3OoKaBc0Ek1x32-49" value="RecognitionFormwordThree" style="swimlane;fontStyle=0;childLayout=stackLayout;horizontal=1;startSize=26;fillColor=none;horizontalStack=0;resizeParent=1;resizeParentMax=0;resizeLast=0;collapsible=1;marginBottom=0;whiteSpace=wrap;html=1;" vertex="1" collapsed="1" parent="1">
          <mxGeometry x="-110" y="620" width="180" height="30" as="geometry">
            <mxRectangle x="20" y="220" width="140" height="52" as="alternateBounds" />
          </mxGeometry>
        </mxCell>
      </root>
    </mxGraphModel>
  </diagram>
</mxfile>
